{"title":"Dicte.S03E06.DANISH.720p50.HDTV-z97","uid":15994425,"size":777422634,"categoryP":"video","categoryS":"hd___tv_shows","magnet":"?xt=urn:btih:9a2b73f1a18f575811c7a9327bc325614e1fd57e&amp;dn=Dicte.S03E06.DANISH.720p50.HDTV-z97&amp;tr=udp%3A%2F%2Ftracker.leechers-paradise.org%3A6969&amp;tr=udp%3A%2F%2Fzer0day.ch%3A1337&amp;tr=udp%3A%2F%2Fopen.demonii.com%3A1337&amp;tr=udp%3A%2F%2Ftracker.coppersurfer.tk%3A6969&amp;tr=udp%3A%2F%2Fexodus.desync.com%3A6969","seeders":6,"leechers":1,"uploader":"48848448","files":2,"time":1476058294,"description":"______ _____  ______\r\n                       |___  /|  _  ||___  /\r\n                          / / | |_| |   / / \r\n                         / /  ____ |  / /  \r\n                       ./ /___.___/ /./ /   \r\n                       _____/____/ _/   \r\n\r\n\r\n                         RELEASE NOTES                         \r\n▄▄▄▄▄▄▄▄▄▄▄▄▄▄▄▄▄▄▄▄▄▄▄▄▄▄▄▄▄▄▄▄▄▄▄▄▄▄▄▄▄▄▄▄▄▄▄▄▄▄▄▄▄▄▄▄▄▄▄▄▄▄▄▄▄\r\n\r\n                 Dicte - Season 3 Episode 6\r\n            \r\niMDB url                       : www.imdb.com/title/tt2025899/\r\niMDB Rating                    : 7.2/10 from 1,108 users\r\nRelease                        : 2016 - September 26th\r\nGenre                          : Krimi, Drama, Familie\r\nSource                         : DVB-C / 720p / 50 FPS\r\nSubs                           : Hardcoded where needed\r\n\r\n                         PLOT SUMMARY                     \r\n▄▄▄▄▄▄▄▄▄▄▄▄▄▄▄▄▄▄▄▄▄▄▄▄▄▄▄▄▄▄▄▄▄▄▄▄▄▄▄▄▄▄▄▄▄▄▄▄▄▄▄▄▄▄▄▄▄▄▄▄▄▄▄▄▄▄\r\n\r\nKort efter episoden med den skizofrene pige, finder et identisk\r\ndrab paa en hjerneskadet pige fra boerneafdelingen sted.\r\nNina og Dicte soeger sammenfald mellem de to piger og kan kun\r\nfinde frem til, at pigerne ikke havde udsigt til bedring - men\r\nhvorfor skulle de myrdes? Og hvem er morderen? Dicte proever at\r\nfaa forstaaelse for Bos handlinger, efter han er vendt hjem fra\r\nLibanon, og idet hun endelig staar klar med en tilgivelse, kan\r\nBos samvittighed ikke tage imod den. Rose skal traeffe et skel-\r\nsaettende valg, men i sidste time er valget allerede truffet for\r\nhende.\r\n\r\n Iben Hjejle, Laerke Winther Andersen, Dar Salim\r\n\r\n                      RELEASE INFORMATION                 \r\n▄▄▄▄▄▄▄▄▄▄▄▄▄▄▄▄▄▄▄▄▄▄▄▄▄▄▄▄▄▄▄▄▄▄▄▄▄▄▄▄▄▄▄▄▄▄▄▄▄▄▄▄▄▄▄▄▄▄▄▄▄▄▄▄▄▄\r\n\r\nVideo\r\nID                             : 1\r\nFormat/Info                    : Advanced Video Codec\r\nFormat profile                 :   \r\nDuration                       : 41mn 28s\r\nBit rate                       : 2 001 Kbps\r\nWidth                          : 1 280 pixels\r\nHeight                         : 720 pixels\r\nDisplay aspect ratio           : 16:9\r\nFrame rate mode                : Constant\r\nFrame rate                     : 50.000 fps\r\nBit depth                      : 8 bits\r\nScan type                      : Progressive\r\nStream size                    : 594 MiB (80%)\r\nLanguage                       : Danish\r\nDefault                        : Yes\r\n\r\nAudio\r\nID                             : 2\r\nFormat                         : AC-3\r\nDuration                       : 41mn 28s\r\nBit rate mode                  : Constant\r\nBit rate                       : 448 Kbps\r\nChannel(s)                     : 6 channels\r\nChannel positions              : Front: L C R, Side: L R, LFE\r\nSampling rate                  : 48.0 KHz\r\nCompression mode               : Lossy\r\nStream size                    : 133 MiB (18%)\r\nLanguage                       : Danish\r\nDefault                        : Yes\r\nForced                         : No","torrent":{"xt":"urn:btih:9a2b73f1a18f575811c7a9327bc325614e1fd57e","amp;dn":"Dicte.S03E06.DANISH.720p50.HDTV-z97","amp;tr":["udp%3A%2F%2Ftracker.leechers-paradise.org%3A6969","udp%3A%2F%2Fzer0day.ch%3A1337","udp%3A%2F%2Fopen.demonii.com%3A1337","udp%3A%2F%2Ftracker.coppersurfer.tk%3A6969","udp%3A%2F%2Fexodus.desync.com%3A6969"],"infoHash":"9a2b73f1a18f575811c7a9327bc325614e1fd57e","infoHashBuffer":{"type":"Buffer","data":[154,43,115,241,161,143,87,88,17,199,169,50,123,195,37,97,78,31,213,126]},"announce":[],"urlList":[]}}